{"title":"Mujhe Kucch Kehna Hai (2001) DVDRip x264 720p AAC TaRa.mkv","uid":15441354,"size":1046549783,"categoryP":"video","categoryS":"movies_dvdr","magnet":"?xt=urn:btih:4d353e3bbf0a34a51851abf308d127d3de0e89dd&amp;dn=Mujhe+Kucch+Kehna+Hai+%282001%29+DVDRip+x264+720p+AAC+TaRa.mkv&amp;tr=udp%3A%2F%2Ftracker.leechers-paradise.org%3A6969&amp;tr=udp%3A%2F%2Fzer0day.ch%3A1337&amp;tr=udp%3A%2F%2Fopen.demonii.com%3A1337&amp;tr=udp%3A%2F%2Ftracker.coppersurfer.tk%3A6969&amp;tr=udp%3A%2F%2Fexodus.desync.com%3A6969","seeders":0,"leechers":1,"uploader":"MdTaRa","files":1,"time":1469823778,"description":"====================================================================\r\nGeneral\r\nMujhe Kucch Kehna Hai (2001) DVDRip x264 720p AAC TaRa.mkv\r\nFormat                      : Matroska\r\nFormat version              : Version 4 / Version 2\r\nFile size                   : 998 MiB\r\nDuration                    : 2 h 16 min\r\nOverall bit rate mode       : Variable\r\nOverall bit rate            : 1 022 kb/s\r\n===========================================================================\r\nVideo\r\nID                          : 1\r\nFormat                      : AVC\r\nFormat/Info                 : Advanced Video Codec\r\nFormat profile              :   \r\nFormat settings, CABAC      : Yes\r\nFormat settings, ReFrames   : 3 frames\r\nFrame mode                  : Frame doubling\r\nCodec ID                    : V_MPEG4/ISO/AVC\r\nDuration                    : 2 h 16 min\r\nBit rate mode               : Variable\r\nBit rate                    : 924 kb/s\r\nMaximum bit rate            : 40.0 Mb/s\r\nWidth                       : 1 280 pixels\r\nHeight                      : 720 pixels\r\nDisplay aspect ratio        : 16:9\r\nFrame rate mode             : Constant\r\nFrame rate                  : 25.000 FPS\r\nColor space                 : YUV\r\nChroma subsampling          : 4:2:0\r\nBit depth                   : 8 bits\r\nScan type                   : Progressive\r\nBits/(Pixel*Frame)          : 0.040\r\nStream size                 : 902 MiB (90%)\r\nTitle                       : .....::::: TaRa :::::.....\r\nLanguage                    : Hindi\r\nDefault                     : Yes\r\nForced                      : No\r\n=======================================================================\r\nAudio\r\nID                          : 2\r\nFormat                      : AAC\r\nFormat/Info                 : Advanced Audio Codec\r\nFormat profile              : LC\r\nCodec ID                    : A_AAC\r\nDuration                    : 2 h 16 min\r\nBit rate                    : 96.0 kb/s\r\nChannel(s)                  : 2 channels\r\nChannel positions           : Front: L R\r\nSampling rate               : 48.0 kHz\r\nFrame rate                  : 46.875 FPS (1024 spf)\r\nCompression mode            : Lossy\r\nDelay relative to video     : 9 ms\r\nStream size                 : 93.7 MiB (9%)\r\nTitle                       : .....::::: TaRa :::::.....\r\nLanguage                    : Hindi\r\nDefault                     : Yes\r\nForced                      : No\r\n======================================================================= \nhttp://imgur.com/gT0Lchp \nhttp://imgur.com/aAScivA","torrent":{"xt":"urn:btih:4d353e3bbf0a34a51851abf308d127d3de0e89dd","amp;dn":"Mujhe+Kucch+Kehna+Hai+%282001%29+DVDRip+x264+720p+AAC+TaRa.mkv","amp;tr":["udp%3A%2F%2Ftracker.leechers-paradise.org%3A6969","udp%3A%2F%2Fzer0day.ch%3A1337","udp%3A%2F%2Fopen.demonii.com%3A1337","udp%3A%2F%2Ftracker.coppersurfer.tk%3A6969","udp%3A%2F%2Fexodus.desync.com%3A6969"],"infoHash":"4d353e3bbf0a34a51851abf308d127d3de0e89dd","infoHashBuffer":{"type":"Buffer","data":[77,53,62,59,191,10,52,165,24,81,171,243,8,209,39,211,222,14,137,221]},"announce":[],"urlList":[]}}